<mxfile host="app.diagrams.net" agent="Mozilla/5.0 (Windows NT 10.0; Win64; x64) AppleWebKit/537.36 (KHTML, like Gecko) Chrome/133.0.0.0 Safari/537.36" version="26.0.12">
  <diagram name="Page-1" id="hLrZo2qqjmLm6GWwptLD">
    <mxGraphModel dx="2097" dy="642" grid="1" gridSize="10" guides="1" tooltips="1" connect="1" arrows="1" fold="1" page="1" pageScale="1" pageWidth="850" pageHeight="1100" math="0" shadow="0">
      <root>
        <mxCell id="0" />
        <mxCell id="1" parent="0" />
        <mxCell id="5w-BvtVBiFkTE_dHqfBQ-44" style="edgeStyle=orthogonalEdgeStyle;rounded=0;orthogonalLoop=1;jettySize=auto;html=1;exitX=0;exitY=0.75;exitDx=0;exitDy=0;" parent="1" source="5w-BvtVBiFkTE_dHqfBQ-1" target="5w-BvtVBiFkTE_dHqfBQ-45" edge="1">
          <mxGeometry relative="1" as="geometry">
            <mxPoint x="80" y="410" as="targetPoint" />
            <Array as="points">
              <mxPoint x="170" y="390" />
              <mxPoint x="140" y="390" />
              <mxPoint x="140" y="410" />
            </Array>
          </mxGeometry>
        </mxCell>
        <mxCell id="5w-BvtVBiFkTE_dHqfBQ-1" value="" style="rounded=0;whiteSpace=wrap;html=1;" parent="1" vertex="1">
          <mxGeometry x="170" y="100" width="220" height="410" as="geometry" />
        </mxCell>
        <mxCell id="5w-BvtVBiFkTE_dHqfBQ-43" value="" style="rounded=1;whiteSpace=wrap;html=1;" parent="1" vertex="1">
          <mxGeometry x="170" y="175" width="220" height="235" as="geometry" />
        </mxCell>
        <mxCell id="5w-BvtVBiFkTE_dHqfBQ-2" value="" style="rounded=0;whiteSpace=wrap;html=1;" parent="1" vertex="1">
          <mxGeometry x="170" y="630" width="220" height="410" as="geometry" />
        </mxCell>
        <mxCell id="5w-BvtVBiFkTE_dHqfBQ-3" value="" style="rounded=0;whiteSpace=wrap;html=1;" parent="1" vertex="1">
          <mxGeometry x="545" y="100" width="220" height="410" as="geometry" />
        </mxCell>
        <mxCell id="5w-BvtVBiFkTE_dHqfBQ-4" value="Guild" style="text;html=1;align=center;verticalAlign=middle;whiteSpace=wrap;rounded=0;" parent="1" vertex="1">
          <mxGeometry x="-10" y="45" width="60" height="30" as="geometry" />
        </mxCell>
        <mxCell id="5w-BvtVBiFkTE_dHqfBQ-5" value="Recruit" style="text;html=1;align=center;verticalAlign=middle;whiteSpace=wrap;rounded=0;" parent="1" vertex="1">
          <mxGeometry x="250" y="560" width="60" height="30" as="geometry" />
        </mxCell>
        <mxCell id="5w-BvtVBiFkTE_dHqfBQ-10" style="edgeStyle=orthogonalEdgeStyle;rounded=0;orthogonalLoop=1;jettySize=auto;html=1;entryX=0;entryY=0.5;entryDx=0;entryDy=0;" parent="1" source="5w-BvtVBiFkTE_dHqfBQ-6" target="5w-BvtVBiFkTE_dHqfBQ-7" edge="1">
          <mxGeometry relative="1" as="geometry" />
        </mxCell>
        <mxCell id="5w-BvtVBiFkTE_dHqfBQ-11" style="edgeStyle=orthogonalEdgeStyle;rounded=0;orthogonalLoop=1;jettySize=auto;html=1;exitX=1;exitY=0.75;exitDx=0;exitDy=0;entryX=0;entryY=0.5;entryDx=0;entryDy=0;" parent="1" source="5w-BvtVBiFkTE_dHqfBQ-6" target="5w-BvtVBiFkTE_dHqfBQ-8" edge="1">
          <mxGeometry relative="1" as="geometry" />
        </mxCell>
        <mxCell id="5w-BvtVBiFkTE_dHqfBQ-12" style="edgeStyle=orthogonalEdgeStyle;rounded=0;orthogonalLoop=1;jettySize=auto;html=1;exitX=1;exitY=1;exitDx=0;exitDy=0;entryX=0;entryY=0.5;entryDx=0;entryDy=0;" parent="1" source="5w-BvtVBiFkTE_dHqfBQ-6" target="5w-BvtVBiFkTE_dHqfBQ-9" edge="1">
          <mxGeometry relative="1" as="geometry" />
        </mxCell>
        <mxCell id="5w-BvtVBiFkTE_dHqfBQ-6" value="show all members" style="text;html=1;align=center;verticalAlign=middle;whiteSpace=wrap;rounded=0;" parent="1" vertex="1">
          <mxGeometry x="20" y="240" width="110" height="50" as="geometry" />
        </mxCell>
        <mxCell id="5w-BvtVBiFkTE_dHqfBQ-13" style="edgeStyle=orthogonalEdgeStyle;rounded=0;orthogonalLoop=1;jettySize=auto;html=1;exitX=1;exitY=0.5;exitDx=0;exitDy=0;" parent="1" source="5w-BvtVBiFkTE_dHqfBQ-7" edge="1">
          <mxGeometry relative="1" as="geometry">
            <mxPoint x="540" y="220" as="targetPoint" />
          </mxGeometry>
        </mxCell>
        <mxCell id="5w-BvtVBiFkTE_dHqfBQ-15" value="click on member to&lt;div&gt;&amp;nbsp;go to details page&lt;div&gt;&lt;br&gt;&lt;/div&gt;&lt;/div&gt;" style="edgeLabel;html=1;align=center;verticalAlign=middle;resizable=0;points=[];" parent="5w-BvtVBiFkTE_dHqfBQ-13" vertex="1" connectable="0">
          <mxGeometry x="0.0564" y="6" relative="1" as="geometry">
            <mxPoint as="offset" />
          </mxGeometry>
        </mxCell>
        <mxCell id="5w-BvtVBiFkTE_dHqfBQ-24" style="edgeStyle=orthogonalEdgeStyle;rounded=0;orthogonalLoop=1;jettySize=auto;html=1;exitX=0;exitY=0.25;exitDx=0;exitDy=0;" parent="1" source="5w-BvtVBiFkTE_dHqfBQ-7" target="5w-BvtVBiFkTE_dHqfBQ-25" edge="1">
          <mxGeometry relative="1" as="geometry">
            <mxPoint x="90" y="140" as="targetPoint" />
          </mxGeometry>
        </mxCell>
        <mxCell id="5w-BvtVBiFkTE_dHqfBQ-7" value="" style="rounded=1;whiteSpace=wrap;html=1;" parent="1" vertex="1">
          <mxGeometry x="180" y="190" width="200" height="60" as="geometry" />
        </mxCell>
        <mxCell id="5w-BvtVBiFkTE_dHqfBQ-8" value="" style="rounded=1;whiteSpace=wrap;html=1;" parent="1" vertex="1">
          <mxGeometry x="180" y="260" width="200" height="60" as="geometry" />
        </mxCell>
        <mxCell id="5w-BvtVBiFkTE_dHqfBQ-9" value="" style="rounded=1;whiteSpace=wrap;html=1;" parent="1" vertex="1">
          <mxGeometry x="180" y="330" width="200" height="60" as="geometry" />
        </mxCell>
        <mxCell id="5w-BvtVBiFkTE_dHqfBQ-14" value="Adventurer Details" style="text;html=1;align=center;verticalAlign=middle;whiteSpace=wrap;rounded=0;" parent="1" vertex="1">
          <mxGeometry x="625" y="30" width="60" height="30" as="geometry" />
        </mxCell>
        <mxCell id="5w-BvtVBiFkTE_dHqfBQ-18" value="picture" style="rounded=0;whiteSpace=wrap;html=1;" parent="1" vertex="1">
          <mxGeometry x="650" y="135" width="100" height="100" as="geometry" />
        </mxCell>
        <mxCell id="5w-BvtVBiFkTE_dHqfBQ-19" value="First and Last name" style="text;html=1;align=center;verticalAlign=middle;whiteSpace=wrap;rounded=0;" parent="1" vertex="1">
          <mxGeometry x="565" y="150" width="60" height="30" as="geometry" />
        </mxCell>
        <mxCell id="5w-BvtVBiFkTE_dHqfBQ-20" value="XP bar" style="rounded=1;whiteSpace=wrap;html=1;" parent="1" vertex="1">
          <mxGeometry x="555" y="240" width="200" height="10" as="geometry" />
        </mxCell>
        <mxCell id="5w-BvtVBiFkTE_dHqfBQ-21" value="Class" style="text;html=1;align=center;verticalAlign=middle;whiteSpace=wrap;rounded=0;" parent="1" vertex="1">
          <mxGeometry x="565" y="180" width="60" height="30" as="geometry" />
        </mxCell>
        <mxCell id="5w-BvtVBiFkTE_dHqfBQ-22" value="Level" style="text;html=1;align=center;verticalAlign=middle;whiteSpace=wrap;rounded=0;" parent="1" vertex="1">
          <mxGeometry x="565" y="200" width="60" height="30" as="geometry" />
        </mxCell>
        <mxCell id="5w-BvtVBiFkTE_dHqfBQ-23" value="Stats" style="rounded=0;whiteSpace=wrap;html=1;" parent="1" vertex="1">
          <mxGeometry x="555" y="260" width="195" height="100" as="geometry" />
        </mxCell>
        <mxCell id="5w-BvtVBiFkTE_dHqfBQ-25" value="Overlay with &quot;Questing&quot; if assigned to a quest" style="text;html=1;align=center;verticalAlign=middle;whiteSpace=wrap;rounded=0;" parent="1" vertex="1">
          <mxGeometry x="10" y="125" width="150" height="30" as="geometry" />
        </mxCell>
        <mxCell id="5w-BvtVBiFkTE_dHqfBQ-26" value="Cost per day to retain" style="rounded=0;whiteSpace=wrap;html=1;" parent="1" vertex="1">
          <mxGeometry x="555" y="370" width="195" height="40" as="geometry" />
        </mxCell>
        <mxCell id="5w-BvtVBiFkTE_dHqfBQ-30" style="edgeStyle=orthogonalEdgeStyle;rounded=0;orthogonalLoop=1;jettySize=auto;html=1;exitX=1;exitY=1;exitDx=0;exitDy=0;" parent="1" source="5w-BvtVBiFkTE_dHqfBQ-27" target="5w-BvtVBiFkTE_dHqfBQ-31" edge="1">
          <mxGeometry relative="1" as="geometry">
            <mxPoint x="790" y="570" as="targetPoint" />
          </mxGeometry>
        </mxCell>
        <mxCell id="5w-BvtVBiFkTE_dHqfBQ-27" value="" style="rounded=0;whiteSpace=wrap;html=1;" parent="1" vertex="1">
          <mxGeometry x="560" y="420" width="190" height="70" as="geometry" />
        </mxCell>
        <mxCell id="5w-BvtVBiFkTE_dHqfBQ-55" style="edgeStyle=orthogonalEdgeStyle;rounded=0;orthogonalLoop=1;jettySize=auto;html=1;exitX=0.5;exitY=1;exitDx=0;exitDy=0;" parent="1" source="5w-BvtVBiFkTE_dHqfBQ-28" target="5w-BvtVBiFkTE_dHqfBQ-56" edge="1">
          <mxGeometry relative="1" as="geometry">
            <mxPoint x="600" y="609.9999999999995" as="targetPoint" />
          </mxGeometry>
        </mxCell>
        <mxCell id="5w-BvtVBiFkTE_dHqfBQ-28" value="Fire" style="rounded=1;whiteSpace=wrap;html=1;" parent="1" vertex="1">
          <mxGeometry x="565" y="425" width="85" height="60" as="geometry" />
        </mxCell>
        <mxCell id="5w-BvtVBiFkTE_dHqfBQ-29" value="Train" style="rounded=1;whiteSpace=wrap;html=1;" parent="1" vertex="1">
          <mxGeometry x="660" y="425" width="85" height="60" as="geometry" />
        </mxCell>
        <mxCell id="5w-BvtVBiFkTE_dHqfBQ-31" value="conditional block if agent is hired by the guild" style="text;html=1;align=center;verticalAlign=middle;whiteSpace=wrap;rounded=0;" parent="1" vertex="1">
          <mxGeometry x="670" y="555" width="150" height="45" as="geometry" />
        </mxCell>
        <mxCell id="5w-BvtVBiFkTE_dHqfBQ-32" value="(header)&lt;div&gt;&lt;br&gt;&lt;/div&gt;" style="rounded=0;whiteSpace=wrap;html=1;" parent="1" vertex="1">
          <mxGeometry x="-630" y="75" width="240" height="50" as="geometry" />
        </mxCell>
        <mxCell id="5w-BvtVBiFkTE_dHqfBQ-33" value="total Money" style="text;html=1;align=center;verticalAlign=middle;whiteSpace=wrap;rounded=0;" parent="1" vertex="1">
          <mxGeometry x="-630" y="75" width="60" height="30" as="geometry" />
        </mxCell>
        <mxCell id="5w-BvtVBiFkTE_dHqfBQ-34" value="Day number" style="text;html=1;align=center;verticalAlign=middle;whiteSpace=wrap;rounded=0;" parent="1" vertex="1">
          <mxGeometry x="-450" y="75" width="60" height="30" as="geometry" />
        </mxCell>
        <mxCell id="5w-BvtVBiFkTE_dHqfBQ-35" value="HUD" style="text;html=1;align=center;verticalAlign=middle;whiteSpace=wrap;rounded=0;" parent="1" vertex="1">
          <mxGeometry x="-540" y="45" width="60" height="30" as="geometry" />
        </mxCell>
        <mxCell id="5w-BvtVBiFkTE_dHqfBQ-37" value="Guild name" style="text;html=1;align=center;verticalAlign=middle;whiteSpace=wrap;rounded=0;" parent="1" vertex="1">
          <mxGeometry x="-565" y="95" width="110" height="30" as="geometry" />
        </mxCell>
        <mxCell id="5w-BvtVBiFkTE_dHqfBQ-38" value="HUD" style="rounded=0;whiteSpace=wrap;html=1;" parent="1" vertex="1">
          <mxGeometry x="170" y="100" width="220" height="40" as="geometry" />
        </mxCell>
        <mxCell id="5w-BvtVBiFkTE_dHqfBQ-40" value="HUD" style="rounded=0;whiteSpace=wrap;html=1;" parent="1" vertex="1">
          <mxGeometry x="545" y="100" width="220" height="40" as="geometry" />
        </mxCell>
        <mxCell id="5w-BvtVBiFkTE_dHqfBQ-41" value="HUD" style="rounded=0;whiteSpace=wrap;html=1;" parent="1" vertex="1">
          <mxGeometry x="170" y="630" width="220" height="40" as="geometry" />
        </mxCell>
        <mxCell id="5w-BvtVBiFkTE_dHqfBQ-42" value="MEMBERS" style="text;html=1;align=center;verticalAlign=middle;whiteSpace=wrap;rounded=0;" parent="1" vertex="1">
          <mxGeometry x="170" y="145" width="120" height="30" as="geometry" />
        </mxCell>
        <mxCell id="5w-BvtVBiFkTE_dHqfBQ-45" value="Scrollable area" style="text;html=1;align=center;verticalAlign=middle;whiteSpace=wrap;rounded=0;" parent="1" vertex="1">
          <mxGeometry x="50" y="395" width="60" height="30" as="geometry" />
        </mxCell>
        <mxCell id="5w-BvtVBiFkTE_dHqfBQ-46" style="edgeStyle=orthogonalEdgeStyle;rounded=0;orthogonalLoop=1;jettySize=auto;html=1;entryX=0;entryY=0.5;entryDx=0;entryDy=0;" parent="1" target="5w-BvtVBiFkTE_dHqfBQ-50" edge="1">
          <mxGeometry relative="1" as="geometry">
            <mxPoint x="130" y="770" as="sourcePoint" />
          </mxGeometry>
        </mxCell>
        <mxCell id="5w-BvtVBiFkTE_dHqfBQ-47" style="edgeStyle=orthogonalEdgeStyle;rounded=0;orthogonalLoop=1;jettySize=auto;html=1;exitX=1;exitY=0.75;exitDx=0;exitDy=0;entryX=0;entryY=0.5;entryDx=0;entryDy=0;" parent="1" target="5w-BvtVBiFkTE_dHqfBQ-51" edge="1">
          <mxGeometry relative="1" as="geometry">
            <mxPoint x="130" y="783" as="sourcePoint" />
          </mxGeometry>
        </mxCell>
        <mxCell id="5w-BvtVBiFkTE_dHqfBQ-48" style="edgeStyle=orthogonalEdgeStyle;rounded=0;orthogonalLoop=1;jettySize=auto;html=1;exitX=1;exitY=1;exitDx=0;exitDy=0;entryX=0;entryY=0.5;entryDx=0;entryDy=0;" parent="1" target="5w-BvtVBiFkTE_dHqfBQ-52" edge="1">
          <mxGeometry relative="1" as="geometry">
            <mxPoint x="130" y="795" as="sourcePoint" />
          </mxGeometry>
        </mxCell>
        <mxCell id="5w-BvtVBiFkTE_dHqfBQ-49" value="" style="rounded=1;whiteSpace=wrap;html=1;" parent="1" vertex="1">
          <mxGeometry x="170" y="680" width="220" height="235" as="geometry" />
        </mxCell>
        <mxCell id="5w-BvtVBiFkTE_dHqfBQ-54" style="edgeStyle=orthogonalEdgeStyle;rounded=0;orthogonalLoop=1;jettySize=auto;html=1;exitX=1;exitY=0.5;exitDx=0;exitDy=0;" parent="1" source="5w-BvtVBiFkTE_dHqfBQ-50" edge="1">
          <mxGeometry relative="1" as="geometry">
            <mxPoint x="510" y="220" as="targetPoint" />
          </mxGeometry>
        </mxCell>
        <mxCell id="5w-BvtVBiFkTE_dHqfBQ-50" value="" style="rounded=1;whiteSpace=wrap;html=1;" parent="1" vertex="1">
          <mxGeometry x="180" y="695" width="200" height="60" as="geometry" />
        </mxCell>
        <mxCell id="5w-BvtVBiFkTE_dHqfBQ-51" value="" style="rounded=1;whiteSpace=wrap;html=1;" parent="1" vertex="1">
          <mxGeometry x="180" y="765" width="200" height="60" as="geometry" />
        </mxCell>
        <mxCell id="5w-BvtVBiFkTE_dHqfBQ-52" value="" style="rounded=1;whiteSpace=wrap;html=1;" parent="1" vertex="1">
          <mxGeometry x="180" y="835" width="200" height="60" as="geometry" />
        </mxCell>
        <mxCell id="5w-BvtVBiFkTE_dHqfBQ-53" value="agents available to recruit" style="text;html=1;align=center;verticalAlign=middle;whiteSpace=wrap;rounded=0;" parent="1" vertex="1">
          <mxGeometry x="20" y="755" width="110" height="50" as="geometry" />
        </mxCell>
        <mxCell id="5w-BvtVBiFkTE_dHqfBQ-56" value="says &quot;Hire&quot;/&quot;Back&quot; if from recruit page" style="text;html=1;align=center;verticalAlign=middle;whiteSpace=wrap;rounded=0;" parent="1" vertex="1">
          <mxGeometry x="545" y="600" width="110" height="30" as="geometry" />
        </mxCell>
        <mxCell id="uD-YOwcoeN-9Z4mE4d9D-2" value="(tabs)&lt;div&gt;&lt;br&gt;&lt;/div&gt;" style="rounded=0;whiteSpace=wrap;html=1;" vertex="1" parent="1">
          <mxGeometry x="-630" y="625" width="240" height="50" as="geometry" />
        </mxCell>
        <mxCell id="uD-YOwcoeN-9Z4mE4d9D-3" value="Guild&lt;div&gt;(home)&lt;/div&gt;" style="ellipse;whiteSpace=wrap;html=1;aspect=fixed;" vertex="1" parent="1">
          <mxGeometry x="-620" y="625" width="50" height="50" as="geometry" />
        </mxCell>
        <mxCell id="uD-YOwcoeN-9Z4mE4d9D-4" value="Recruit" style="ellipse;whiteSpace=wrap;html=1;aspect=fixed;" vertex="1" parent="1">
          <mxGeometry x="-535" y="625" width="50" height="50" as="geometry" />
        </mxCell>
        <mxCell id="uD-YOwcoeN-9Z4mE4d9D-5" value="Quests" style="ellipse;whiteSpace=wrap;html=1;aspect=fixed;" vertex="1" parent="1">
          <mxGeometry x="-455" y="625" width="50" height="50" as="geometry" />
        </mxCell>
        <mxCell id="uD-YOwcoeN-9Z4mE4d9D-6" value="" style="rounded=0;whiteSpace=wrap;html=1;" vertex="1" parent="1">
          <mxGeometry x="-260" y="105" width="220" height="410" as="geometry" />
        </mxCell>
      </root>
    </mxGraphModel>
  </diagram>
</mxfile>
